<?xml version="1.0" encoding="UTF-8" standalone="no"?>
<svg
   xmlns:dc="http://purl.org/dc/elements/1.1/"
   xmlns:cc="http://creativecommons.org/ns#"
   xmlns:rdf="http://www.w3.org/1999/02/22-rdf-syntax-ns#"
   xmlns:svg="http://www.w3.org/2000/svg"
   xmlns="http://www.w3.org/2000/svg"
   id="svg7879"
   version="1.1"
   viewBox="0 0 204.62483 204.62483"
   height="204.62483mm"
   width="204.62483mm">
  <defs
     id="defs7873" />
  <metadata
     id="metadata7876">
    <rdf:RDF>
      <cc:Work
         rdf:about="">
        <dc:format>image/svg+xml</dc:format>
        <dc:type
           rdf:resource="http://purl.org/dc/dcmitype/StillImage" />
        <dc:title></dc:title>
      </cc:Work>
    </rdf:RDF>
  </metadata>
  <g
     transform="translate(-2.0090085,-38.20544)"
     id="layer1">
    <rect
       transform="rotate(-45)"
       y="100.90174"
       x="-97.820518"
       height="144.45155"
       width="144.45155"
       style="opacity:1;fill:#ffffff;fill-opacity:0.96954316;stroke:#1a1a1a;stroke-width:0.2400554;stroke-miterlimit:4;stroke-dasharray:none;stroke-opacity:0.79187814"
       id="rect7823" />
    <path
       id="path7829"
       d="m 117.83068,175.3377 c -0.0132,-0.15645 -0.0383,-0.29744 -0.0383,-0.47123 v -14.09593 c 0,-0.95362 -0.0639,-1.84317 -0.19165,-2.66885 -0.0639,-0.41285 -0.14385,-0.80975 -0.23965,-1.1906 -0.0958,-0.38088 -0.20754,-0.74609 -0.33527,-1.09499 -0.12773,-0.34889 -0.27124,-0.68161 -0.43089,-0.99855 -0.15966,-0.31692 -0.33535,-0.61795 -0.52692,-0.90293 -0.19157,-0.28497 -0.39904,-0.55388 -0.62253,-0.80691 -0.22349,-0.25302 -0.46315,-0.4902 -0.71855,-0.71129 1.12053,-0.11806 2.1847,-0.26574 3.19214,-0.443 1.00744,-0.17725 1.95829,-0.384 2.85284,-0.62011 0.89464,-0.23539 1.80412,-0.54495 2.72816,-0.92835 0.92403,-0.38339 1.8626,-0.84077 2.81612,-1.37135 0.47665,-0.26558 0.93354,-0.54627 1.37093,-0.84241 0.4374,-0.29613 0.85547,-0.60764 1.25355,-0.93439 0.39808,-0.32677 0.77617,-0.66892 1.13492,-1.0264 0.35874,-0.35749 0.69775,-0.73008 1.01711,-1.11839 0.31972,-0.38825 0.62458,-0.80857 0.91463,-1.26079 0.29004,-0.4522 0.56545,-0.93632 0.82588,-1.45243 0.2604,-0.51614 0.50585,-1.0645 0.73669,-1.6445 0.23084,-0.57998 0.44706,-1.19188 0.64836,-1.83572 0.20145,-0.64367 0.37782,-1.31105 0.52894,-2.00275 0.1511,-0.69169 0.27688,-1.40748 0.37763,-2.14718 0.10073,-0.7397 0.17636,-1.50358 0.22673,-2.29122 0.0504,-0.78766 0.0755,-1.59929 0.0755,-2.43486 0,-0.59465 -0.0241,-1.17806 -0.0726,-1.75059 -0.0486,-0.57255 -0.12156,-1.13398 -0.21868,-1.68443 -0.0971,-0.55044 -0.21826,-1.08992 -0.36391,-1.61826 -0.14566,-0.52834 -0.31578,-1.04586 -0.50996,-1.5521 -0.1942,-0.50624 -0.4125,-1.0014 -0.65522,-1.48552 -0.24272,-0.48412 -0.50963,-0.95696 -0.80085,-1.41895 -0.29123,-0.46201 -0.60676,-0.91291 -0.94651,-1.3528 -0.33974,-0.43989 -0.7039,-0.86885 -1.09215,-1.28661 0.18201,-0.4472 0.33884,-0.90135 0.47043,-1.36206 0.13156,-0.46071 0.23798,-0.92778 0.31912,-1.402 0.0812,-0.47424 0.13711,-0.95543 0.16784,-1.44318 0.0308,-0.48775 0.0362,-0.98223 0.0166,-1.4835 -0.0197,-0.50128 -0.0647,-1.00946 -0.13475,-1.52425 -0.07,-0.51481 -0.16526,-1.03628 -0.28566,-1.5646 -0.12041,-0.52834 -0.2658,-1.06348 -0.43654,-1.60535 -0.17074,-0.54187 -0.36675,-1.09029 -0.58783,-1.64569 -0.27536,-0.0885 -0.58115,-0.14136 -0.91786,-0.15857 -0.33671,-0.0172 -0.70416,0.002 -1.10225,0.0553 -0.39808,0.0541 -0.82711,0.14377 -1.28661,0.2691 -0.4595,0.12533 -0.94963,0.28599 -1.4706,0.48254 -1.04203,0.393 -2.01506,0.80573 -2.9194,1.2382 -0.90433,0.43247 -1.74008,0.88482 -2.50707,1.35683 l -2.24079,1.41531 c -0.91438,-0.25557 -1.83625,-0.47926 -2.76529,-0.67094 -0.92904,-0.19168 -1.86516,-0.35112 -2.80885,-0.47891 -0.9437,-0.12776 -1.89489,-0.22377 -2.85324,-0.28766 -0.95835,-0.0639 -1.92422,-0.0956 -2.89721,-0.0956 -0.97305,0 -1.9385,0.0318 -2.89681,0.0956 -0.95832,0.0639 -1.90922,0.1599 -2.85284,0.28766 -0.943623,0.12779 -1.879898,0.28723 -2.808855,0.47891 -0.928962,0.19168 -1.850557,0.41537 -2.76488,0.67094 -0.62921,-0.43297 -1.464725,-0.96406 -2.507072,-1.59244 -0.521173,-0.31409 -1.191737,-0.66042 -2.012436,-1.0389 -0.820699,-0.37846 -1.791506,-0.78907 -2.912143,-1.23175 -0.560214,-0.22117 -1.086042,-0.4037 -1.577511,-0.54747 -0.491464,-0.1438 -0.948246,-0.24915 -1.370937,-0.31552 -0.422691,-0.0664 -0.811291,-0.0938 -1.165182,-0.0827 -0.35389,0.0112 -0.67314,0.0608 -0.958204,0.14929 -0.216281,0.55541 -0.407616,1.10422 -0.574118,1.64609 -0.166503,0.54187 -0.308114,1.07701 -0.424842,1.60535 -0.116728,0.52835 -0.208601,1.04981 -0.275559,1.5646 -0.06695,0.51481 -0.109093,1.02259 -0.126282,1.52387 -0.01719,0.50128 -0.0096,0.99614 0.023,1.48391 0.03257,0.48775 0.08992,0.96852 0.172273,1.44276 0.08235,0.47422 0.189838,0.94167 0.321958,1.4024 0.132121,0.46073 0.288947,0.91485 0.470832,1.36208 -0.388245,0.4177 -0.752016,0.84635 -1.091749,1.2862 -0.339732,0.43987 -0.655294,0.89081 -0.946509,1.3528 -0.29121,0.46197 -0.558168,0.93522 -0.800856,1.41936 -0.242688,0.48411 -0.461052,0.97928 -0.655213,1.48552 -0.194161,0.50622 -0.364338,1.02332 -0.509964,1.55169 -0.14563,0.52834 -0.266831,1.06779 -0.363921,1.61826 -0.09709,0.55044 -0.169719,1.11188 -0.218268,1.68443 -0.04855,0.57254 -0.07302,1.15635 -0.07302,1.75098 0,0.83543 0.02509,1.64609 0.07544,2.43243 0.05038,0.78635 0.126001,1.5483 0.226742,2.28559 0.100746,0.73727 0.226938,1.45013 0.378039,2.1383 0.151101,0.68819 0.327071,1.35158 0.528527,1.99065 0.201351,0.63871 0.417034,1.24666 0.646738,1.82402 0.22971,0.57738 0.47345,1.12442 0.731467,1.64045 0.258017,0.51605 0.53031,1.00136 0.816593,1.45609 0.286279,0.4547 0.586817,0.87868 0.901317,1.27209 0.314555,0.39341 0.64912,0.77081 1.004204,1.13208 0.355084,0.36129 0.730396,0.70643 1.12604,1.03568 0.39565,0.32925 0.811654,0.64234 1.247891,0.93964 0.436237,0.29729 0.892865,0.5786 1.369731,0.84404 0.953318,0.53099 1.892183,0.98802 2.816119,1.37133 0.923931,0.38333 1.833118,0.69306 2.727358,0.92917 0.894753,0.23611 1.845721,0.44241 2.853237,0.61929 1.007516,0.17691 2.071302,0.32455 3.191735,0.4426 -0.393049,0.35381 -0.747779,0.74557 -1.06472,1.17567 -0.316942,0.43011 -0.595958,0.89851 -0.836768,1.40483 -0.240805,0.50632 -0.443758,1.05074 -0.60841,1.63318 -0.164647,0.58246 -0.291187,1.20306 -0.379648,1.86156 -0.413038,0.19655 -0.840674,0.36875 -1.282989,0.51642 -0.442316,0.14765 -0.899044,0.27063 -1.370539,0.36917 -0.472011,0.0979 -0.988195,0.17161 -1.548463,0.22066 -0.560265,0.0491 -1.164905,0.0735 -1.813531,0.0735 -0.324312,0 -0.647986,-0.0262 -0.971119,-0.0791 -0.323129,-0.0528 -0.645573,-0.13231 -0.967486,-0.23806 -0.321913,-0.10571 -0.6432,-0.23794 -0.963852,-0.39658 -0.320657,-0.15863 -0.640465,-0.34357 -0.959819,-0.55515 -0.319613,-0.21137 -0.627799,-0.44645 -0.923913,-0.70565 -0.296114,-0.2592 -0.580198,-0.54257 -0.852904,-0.84968 -0.27271,-0.3071 -0.533707,-0.63821 -0.783109,-0.99331 -0.249402,-0.35507 -0.487518,-0.73421 -0.713716,-1.13732 -0.186789,-0.31446 -0.386163,-0.61393 -0.598724,-0.89891 -0.212561,-0.28498 -0.438251,-0.55543 -0.676598,-0.81095 -0.238342,-0.2555 -0.489522,-0.49614 -0.75365,-0.72219 -0.264127,-0.22603 -0.541202,-0.43726 -0.831119,-0.63381 -0.580252,-0.39341 -1.113583,-0.70787 -1.600107,-0.94369 -0.486519,-0.23582 -0.925991,-0.39315 -1.319299,-0.47164 l -1.179375,-0.17677 c -0.413038,0 -0.761979,0.0222 -1.04697,0.0662 -0.284986,0.044 -0.505876,0.10977 -0.663278,0.19808 -0.157407,0.0887 -0.260766,0.1898 -0.309856,0.303 -0.04908,0.1132 -0.04405,0.23855 0.01492,0.37643 0.117953,0.27432 0.294849,0.55011 0.530546,0.82588 0.236106,0.27495 0.491623,0.51161 0.766565,0.70806 l 0.412734,0.29492 c 0.216227,0.0983 0.432149,0.21896 0.647142,0.36149 0.214993,0.14254 0.429337,0.30703 0.64311,0.49383 0.427545,0.37362 0.852581,0.83596 1.275322,1.38668 0.422745,0.54999 0.788662,1.07552 1.098204,1.57672 0.309547,0.50118 0.562755,0.97777 0.759303,1.42944 l 0.589855,1.35762 c 0.127811,0.37343 0.277832,0.72894 0.449851,1.06673 0.172019,0.33781 0.365972,0.6576 0.582185,0.95983 0.216213,0.30222 0.454519,0.587 0.714922,0.85371 0.260403,0.2667 0.543075,0.5156 0.847663,0.74678 0.304743,0.2308 0.615406,0.44072 0.932383,0.62981 0.316982,0.18908 0.640233,0.35733 0.969505,0.50472 0.329271,0.14738 0.664603,0.27396 1.006218,0.37964 0.34161,0.10569 0.689327,0.19061 1.043336,0.25458 0.7076,0.12787 1.403114,0.2258 2.086267,0.29453 0.683149,0.0687 1.354099,0.1083 2.012433,0.11822 0.658646,0.01 1.260723,-0.003 1.806271,-0.0371 0.545548,-0.0345 1.034513,-0.091 1.466966,-0.16945 l 1.356416,-0.23603 c 0,1.49432 0.0098,3.51895 0.02985,6.07525 0.01942,2.55546 0.02985,3.89341 0.02985,4.01074 0,0.17769 -0.04834,0.30932 -0.06657,0.46962 z"
       style="opacity:1;fill:#808080;fill-opacity:1;stroke:none;stroke-width:0.38199663;stroke-miterlimit:4;stroke-dasharray:none;stroke-opacity:1" />
  </g>
</svg>
