<?xml version="1.0" encoding="UTF-8" standalone="no"?>
<svg
   xmlns:dc="http://purl.org/dc/elements/1.1/"
   xmlns:cc="http://creativecommons.org/ns#"
   xmlns:rdf="http://www.w3.org/1999/02/22-rdf-syntax-ns#"
   xmlns:svg="http://www.w3.org/2000/svg"
   xmlns="http://www.w3.org/2000/svg"
   id="svg7879"
   version="1.1"
   viewBox="0 0 204.57124 204.4601"
   height="204.4601mm"
   width="204.57124mm">
  <defs
     id="defs7873" />
  <metadata
     id="metadata7876">
    <rdf:RDF>
      <cc:Work
         rdf:about="">
        <dc:format>image/svg+xml</dc:format>
        <dc:type
           rdf:resource="http://purl.org/dc/dcmitype/StillImage" />
        <dc:title></dc:title>
      </cc:Work>
    </rdf:RDF>
  </metadata>
  <g
     transform="translate(-6.5716021,-42.945818)"
     id="layer1">
    <rect
       id="rect7844"
       style="opacity:1;fill:#ffffff;fill-opacity:1;stroke:#1a1a1a;stroke-width:0.23992735;stroke-miterlimit:4;stroke-dasharray:none;stroke-opacity:0.79187814"
       width="144.3745"
       height="144.3745"
       x="-97.917221"
       y="107.44827"
       transform="matrix(0.70729891,-0.7069146,0.70729891,0.7069146,0,0)" />
    <path
       id="path7840"
       d="m 88.486765,118.39531 c -3.56806,-0.003 -6.48694,2.88702 -6.48694,6.42935 0,3.65238 3.01349,6.51555 6.4434,6.44617 3.38161,0.0807 6.46038,-2.71385 6.4688,-6.42144 0.008,-3.54098 -2.89992,-6.45152 -6.42526,-6.45408 z m 33.059495,16.88854 c -3.69577,0 -6.96113,1.8429 -8.92504,4.65988 -0.21416,0.30705 -0.41235,0.62595 -0.59442,0.95512 -0.0632,-0.01 -0.10062,-0.0147 -0.10127,-0.0129 v -3.95302 c 0,-0.40682 -0.32973,-0.73654 -0.7366,-0.73654 h -9.42348 c -0.40702,0 -0.73692,0.32989 -0.73692,0.73654 v 34.27951 c 0,0.40648 0.32973,0.73604 0.73659,0.73621 l 9.62864,0.003 c 0.40705,0 0.73728,-0.32938 0.73728,-0.7362 v -19.8047 c 0,-3.42332 2.73172,-6.26573 6.15674,-6.30439 1.7484,-0.0198 3.33364,0.68042 4.47605,1.82287 1.12753,1.12625 1.82417,2.68347 1.82417,4.4024 v 19.8861 c 0,0.40666 0.32975,0.73637 0.73662,0.73654 l 9.65272,0.003 c 0.40704,0 0.73726,-0.32971 0.73726,-0.73653 v -23.71158 c 0,-6.75161 -5.47623,-12.2247 -12.23134,-12.2247 z m -36.867205,0.91259 c -0.98026,0 -1.77503,0.79434 -1.77503,1.77408 v 32.20476 c 0,0.97972 0.79477,1.77407 1.77503,1.77407 h 7.55309 c 0.98028,0 1.77471,-0.79435 1.77471,-1.77407 v -32.20476 c 0,-0.97974 -0.79443,-1.77408 -1.77471,-1.77408 z"
       style="fill:#808080;fill-opacity:1;stroke-width:0.16884878" />
  </g>
</svg>
